<svg id="svg" version="1.1" xmlns="http://www.w3.org/2000/svg" xmlns:xlink="http://www.w3.org/1999/xlink" width="400" height="415.24736415247366" viewBox="0, 0, 400,415.24736415247366"><g id="svgg"><path id="path0" d="M260.316 48.573 C 259.959 48.890,259.453 49.189,259.193 49.240 C 258.173 49.436,255.900 50.765,255.588 51.347 C 255.408 51.685,255.178 51.880,255.079 51.781 C 254.752 51.453,253.109 52.863,251.902 54.506 C 251.249 55.396,250.530 56.123,250.304 56.123 C 250.078 56.123,249.036 57.036,247.989 58.151 C 246.942 59.266,245.998 60.178,245.890 60.178 C 245.783 60.178,244.646 61.309,243.365 62.691 C 242.083 64.073,240.974 65.168,240.900 65.124 C 240.826 65.080,240.027 65.790,239.125 66.702 C 238.223 67.613,237.386 68.270,237.263 68.162 C 237.141 68.053,237.120 68.110,237.217 68.289 C 237.314 68.467,236.076 69.854,234.466 71.371 C 230.416 75.187,229.302 76.282,228.527 77.215 C 228.158 77.658,227.374 78.413,226.785 78.893 C 225.341 80.069,222.172 83.165,219.741 85.774 C 218.644 86.952,217.598 87.916,217.416 87.916 C 217.235 87.916,216.467 88.609,215.709 89.457 C 214.951 90.304,214.450 90.793,214.596 90.542 C 214.774 90.235,214.739 90.162,214.486 90.318 C 214.280 90.445,214.112 90.749,214.112 90.993 C 214.112 91.237,213.752 91.720,213.312 92.066 C 212.872 92.413,212.604 92.788,212.717 92.901 C 212.830 93.014,212.713 93.106,212.458 93.106 C 212.202 93.106,211.134 93.982,210.084 95.053 C 209.033 96.123,208.063 96.999,207.928 96.999 C 207.792 96.999,206.764 98.090,205.642 99.423 C 204.521 100.756,203.534 101.777,203.448 101.691 C 203.363 101.606,202.450 102.396,201.421 103.448 C 200.391 104.501,199.480 105.292,199.395 105.208 C 199.252 105.065,198.365 106.472,198.485 106.650 C 198.515 106.695,198.453 106.718,198.347 106.701 C 198.241 106.685,197.219 107.634,196.077 108.810 C 194.935 109.986,193.909 110.949,193.798 110.949 C 193.576 110.949,185.500 118.826,182.848 121.630 C 181.933 122.597,180.825 123.692,180.386 124.063 C 179.947 124.433,178.852 125.465,177.953 126.356 C 177.054 127.247,176.172 127.981,175.994 127.986 C 175.815 127.992,175.689 128.248,175.714 128.556 C 175.739 128.864,175.620 129.116,175.449 129.116 C 175.279 129.116,174.209 130.028,173.072 131.144 C 171.934 132.259,170.886 133.244,170.741 133.333 C 170.597 133.423,170.515 133.605,170.560 133.739 C 170.604 133.873,170.524 133.946,170.382 133.901 C 170.066 133.802,168.049 135.458,168.037 135.827 C 168.032 135.972,167.359 136.821,166.541 137.713 C 165.724 138.605,165.158 139.116,165.284 138.848 C 165.410 138.581,164.630 139.265,163.550 140.370 C 162.470 141.474,161.276 142.545,160.895 142.748 C 160.515 142.952,160.270 143.184,160.350 143.265 C 160.524 143.438,156.471 147.605,156.121 147.613 C 155.988 147.616,155.266 148.254,154.515 149.032 C 153.764 149.810,153.070 150.367,152.974 150.270 C 152.877 150.174,152.798 150.282,152.798 150.511 C 152.798 150.741,152.360 151.427,151.825 152.037 C 151.290 152.646,150.852 153.041,150.852 152.915 C 150.852 152.788,150.030 153.513,149.025 154.526 C 148.021 155.538,147.079 156.367,146.934 156.367 C 146.788 156.367,145.622 157.571,144.344 159.043 C 143.065 160.515,141.907 161.688,141.769 161.651 C 141.631 161.613,140.852 162.270,140.038 163.110 C 139.224 163.951,138.263 164.916,137.902 165.253 C 137.541 165.591,137.323 165.993,137.417 166.146 C 137.512 166.298,137.370 166.423,137.103 166.423 C 136.836 166.423,135.769 167.372,134.732 168.532 C 133.695 169.692,132.680 170.640,132.476 170.641 C 132.272 170.641,131.396 171.464,130.529 172.470 C 128.722 174.568,128.152 175.151,127.248 175.831 C 125.703 176.994,123.326 179.341,123.509 179.524 C 123.619 179.634,123.543 179.724,123.340 179.724 C 123.137 179.724,121.148 181.531,118.919 183.738 C 116.691 185.946,114.789 187.674,114.694 187.578 C 114.598 187.483,114.366 187.846,114.178 188.386 C 113.990 188.926,113.476 189.531,113.037 189.732 C 112.597 189.932,112.060 190.499,111.843 190.993 C 111.626 191.486,111.261 192.008,111.030 192.153 C 110.799 192.298,110.686 192.538,110.778 192.687 C 111.001 193.048,110.133 194.697,109.863 194.426 C 109.673 194.236,109.524 195.113,109.564 196.188 C 109.572 196.411,109.441 196.594,109.272 196.594 C 109.103 196.594,109.054 196.740,109.165 196.918 C 109.275 197.097,109.200 197.242,108.997 197.242 C 108.789 197.242,108.670 197.631,108.723 198.135 C 108.774 198.626,108.730 199.173,108.625 199.351 C 108.319 199.870,108.353 206.975,108.662 206.975 C 108.816 206.975,108.870 207.250,108.782 207.586 C 108.694 207.922,108.848 208.633,109.124 209.167 C 109.400 209.700,109.534 210.228,109.422 210.340 C 109.310 210.452,109.384 210.543,109.587 210.543 C 109.790 210.543,109.871 210.762,109.769 211.030 C 109.666 211.298,109.752 211.517,109.960 211.517 C 110.168 211.517,110.240 211.675,110.121 211.869 C 109.903 212.222,110.896 214.503,111.356 214.707 C 111.491 214.767,111.527 214.938,111.435 215.087 C 111.343 215.236,111.469 215.559,111.715 215.805 C 111.961 216.051,112.400 216.712,112.691 217.275 C 112.982 217.837,113.428 218.414,113.683 218.556 C 113.938 218.699,114.172 218.962,114.202 219.140 C 114.233 219.319,114.353 219.442,114.469 219.415 C 114.778 219.341,115.328 220.049,115.328 220.519 C 115.328 220.742,115.444 220.919,115.584 220.913 C 115.725 220.907,116.509 221.637,117.327 222.535 C 118.144 223.434,118.945 224.169,119.107 224.169 C 119.269 224.169,119.923 224.643,120.561 225.223 C 121.199 225.803,121.931 226.279,122.188 226.280 C 122.445 226.282,122.789 226.501,122.954 226.767 C 123.118 227.033,123.368 227.257,123.508 227.266 C 123.648 227.274,124.530 227.678,125.466 228.164 C 126.403 228.649,127.170 228.952,127.170 228.838 C 127.170 228.724,127.357 228.786,127.585 228.976 C 127.814 229.166,128.410 229.395,128.911 229.486 C 129.411 229.577,130.019 229.815,130.260 230.015 C 130.502 230.216,130.964 230.352,131.286 230.319 C 131.609 230.285,131.946 230.290,132.036 230.330 C 132.697 230.622,140.146 230.939,140.146 230.675 C 140.146 230.566,140.730 230.533,141.444 230.601 C 142.157 230.669,142.741 230.589,142.741 230.423 C 142.741 230.257,143.179 230.185,143.715 230.263 C 144.299 230.349,144.688 230.262,144.688 230.045 C 144.688 229.846,144.961 229.684,145.295 229.684 C 146.121 229.684,148.905 228.429,148.905 228.057 C 148.905 227.892,149.105 227.834,149.350 227.928 C 149.594 228.022,149.885 227.862,149.996 227.573 C 150.107 227.284,150.331 227.129,150.494 227.230 C 150.656 227.330,152.208 226.026,153.942 224.331 C 155.676 222.636,157.186 221.249,157.298 221.249 C 157.574 221.248,158.998 219.796,160.578 217.904 C 161.295 217.046,161.882 216.438,161.882 216.555 C 161.882 216.866,166.588 212.395,167.580 211.142 C 168.105 210.479,174.200 204.903,174.723 204.607 C 174.976 204.464,175.182 204.195,175.182 204.009 C 175.182 203.563,176.350 202.087,176.547 202.284 C 176.632 202.368,177.280 201.816,177.988 201.057 C 178.697 200.297,180.115 198.966,181.141 198.100 C 182.167 197.233,182.943 196.460,182.866 196.383 C 182.699 196.217,184.801 193.998,185.125 193.998 C 185.246 193.998,186.271 193.041,187.401 191.871 C 188.532 190.701,189.457 189.843,189.457 189.964 C 189.457 190.086,189.674 190.004,189.940 189.784 C 190.205 189.563,190.376 189.290,190.319 189.177 C 190.198 188.936,194.571 184.622,194.752 184.803 C 194.819 184.870,195.544 184.208,196.363 183.332 C 197.182 182.457,197.934 181.822,198.034 181.922 C 198.134 182.022,198.221 181.896,198.227 181.644 C 198.240 181.085,199.333 179.724,199.769 179.724 C 199.941 179.724,200.920 178.812,201.943 177.697 C 202.967 176.582,203.897 175.665,204.011 175.660 C 204.124 175.655,205.819 174.069,207.777 172.134 C 209.735 170.200,211.815 168.252,212.400 167.806 C 212.985 167.360,213.463 166.876,213.463 166.730 C 213.463 166.583,214.485 165.434,215.734 164.175 C 216.983 162.916,218.005 161.969,218.005 162.070 C 218.005 162.172,218.625 161.661,219.384 160.936 C 220.142 160.211,220.872 159.616,221.006 159.614 C 221.139 159.612,221.249 159.450,221.249 159.253 C 221.249 158.869,227.343 152.798,227.729 152.798 C 227.857 152.798,228.225 152.506,228.548 152.149 C 228.871 151.792,229.062 151.500,228.972 151.500 C 228.882 151.500,229.599 150.697,230.565 149.716 C 231.530 148.735,232.393 147.932,232.481 147.932 C 232.569 147.932,233.302 147.311,234.110 146.553 C 234.918 145.795,235.785 145.058,236.038 144.915 C 236.290 144.772,236.496 144.518,236.496 144.350 C 236.496 143.951,240.687 139.822,241.091 139.822 C 241.261 139.822,241.311 139.676,241.200 139.497 C 241.090 139.319,241.218 139.173,241.485 139.173 C 241.752 139.173,242.673 138.354,243.532 137.353 C 244.391 136.352,245.384 135.294,245.740 135.001 C 246.096 134.708,247.398 133.483,248.635 132.279 C 249.871 131.075,250.967 130.084,251.070 130.078 C 251.173 130.072,252.206 128.979,253.366 127.649 C 254.526 126.318,255.640 125.228,255.842 125.226 C 256.044 125.225,256.728 124.649,257.362 123.948 C 257.995 123.247,258.815 122.512,259.184 122.315 C 259.552 122.118,259.854 121.796,259.854 121.600 C 259.854 121.404,261.022 120.123,262.449 118.754 C 263.877 117.385,265.045 116.333,265.045 116.416 C 265.045 116.579,266.627 114.928,268.909 112.383 C 269.696 111.505,270.459 110.787,270.604 110.787 C 270.939 110.787,273.687 108.131,277.205 104.407 C 278.273 103.277,279.313 102.279,279.516 102.190 C 280.200 101.890,282.589 99.576,282.459 99.341 C 282.323 99.095,284.364 96.970,284.689 97.018 C 284.793 97.034,285.898 96.089,287.145 94.920 C 288.392 93.750,289.724 92.575,290.104 92.308 C 290.485 92.042,290.717 91.745,290.621 91.648 C 290.413 91.441,293.225 88.564,293.636 88.564 C 293.790 88.564,293.917 88.273,293.917 87.916 C 293.917 87.559,294.087 87.303,294.294 87.348 C 294.501 87.393,294.779 87.064,294.911 86.618 C 295.042 86.172,295.166 85.953,295.185 86.131 C 295.204 86.310,295.502 86.027,295.847 85.503 C 296.193 84.979,296.402 84.431,296.313 84.286 C 296.223 84.141,296.268 84.022,296.412 84.020 C 297.219 84.012,297.458 82.041,297.451 75.471 C 297.443 68.578,297.306 66.701,296.830 66.995 C 296.689 67.083,296.655 66.839,296.756 66.454 C 296.882 65.975,296.821 65.827,296.564 65.986 C 296.328 66.132,296.188 65.980,296.188 65.577 C 296.188 64.760,294.632 61.638,294.225 61.638 C 294.056 61.638,293.917 61.355,293.917 61.008 C 293.917 60.661,293.593 60.150,293.196 59.872 C 292.800 59.595,292.603 59.367,292.759 59.367 C 292.916 59.367,292.729 59.095,292.345 58.762 C 291.961 58.428,291.646 57.990,291.646 57.788 C 291.646 57.586,291.496 57.421,291.313 57.421 C 291.129 57.421,290.235 56.621,289.325 55.643 C 288.415 54.666,287.543 53.944,287.387 54.040 C 287.232 54.136,287.105 53.963,287.105 53.655 C 287.105 53.347,287.018 53.182,286.913 53.288 C 286.807 53.393,286.332 53.134,285.858 52.711 C 285.384 52.289,284.902 51.971,284.787 52.006 C 284.672 52.040,284.307 51.830,283.976 51.540 C 283.200 50.858,281.265 49.876,281.265 50.164 C 281.265 50.285,280.973 50.120,280.616 49.797 C 280.260 49.474,279.968 49.324,279.968 49.462 C 279.968 49.601,279.749 49.533,279.481 49.311 C 279.213 49.089,278.992 49.034,278.989 49.190 C 278.987 49.345,278.877 49.327,278.746 49.148 C 278.032 48.177,276.947 48.051,269.042 48.025 C 261.747 48.000,260.903 48.054,260.316 48.573 M243.591 165.273 C 243.478 165.388,242.821 165.540,242.131 165.611 C 240.137 165.818,238.767 166.151,238.767 166.430 C 238.767 166.571,238.475 166.611,238.118 166.517 C 237.741 166.419,237.470 166.507,237.470 166.729 C 237.470 166.939,237.360 167.046,237.226 166.966 C 237.092 166.887,236.326 167.163,235.523 167.579 C 234.720 167.995,233.698 168.498,233.252 168.696 C 232.429 169.060,231.733 169.667,228.193 173.102 C 227.106 174.157,225.755 175.371,225.192 175.799 C 224.629 176.227,224.157 176.738,224.142 176.934 C 224.128 177.131,223.337 177.948,222.384 178.751 C 221.432 179.554,220.641 180.402,220.627 180.636 C 220.612 180.869,220.471 180.980,220.313 180.883 C 220.156 180.785,219.443 181.338,218.730 182.112 C 218.018 182.885,217.198 183.609,216.909 183.719 C 216.619 183.830,216.383 184.090,216.383 184.295 C 216.383 184.501,215.178 185.780,213.706 187.138 C 210.618 189.986,208.065 192.566,207.144 193.769 C 206.792 194.230,206.440 194.545,206.364 194.469 C 206.227 194.332,201.127 199.099,200.811 199.659 C 200.722 199.817,199.773 200.761,198.702 201.756 C 197.632 202.751,196.121 204.186,195.345 204.945 C 194.569 205.705,193.804 206.326,193.644 206.326 C 193.485 206.326,193.089 206.873,192.764 207.543 C 192.440 208.212,192.015 208.728,191.821 208.689 C 191.627 208.650,190.591 209.551,189.518 210.692 C 188.446 211.832,187.503 212.699,187.423 212.619 C 187.287 212.483,186.582 213.223,184.063 216.150 C 183.505 216.798,182.957 217.237,182.846 217.126 C 182.735 217.015,182.644 217.175,182.644 217.483 C 182.644 217.791,182.530 217.973,182.390 217.886 C 182.250 217.800,181.301 218.576,180.281 219.610 C 179.261 220.644,178.427 221.407,178.427 221.305 C 178.427 221.044,177.618 221.880,177.603 222.157 C 177.585 222.468,174.113 225.982,173.663 226.146 C 173.179 226.321,169.995 229.323,169.981 229.616 C 169.961 230.036,168.759 231.306,168.380 231.306 C 168.175 231.306,168.097 231.452,168.208 231.630 C 168.318 231.809,168.204 231.955,167.955 231.955 C 167.706 231.955,166.913 232.575,166.193 233.333 C 164.737 234.867,162.823 236.481,162.449 236.490 C 162.315 236.494,162.205 236.679,162.203 236.902 C 162.199 237.353,159.089 240.733,158.875 240.519 C 158.801 240.444,158.078 241.078,157.269 241.927 C 156.460 242.776,155.452 243.786,155.028 244.170 C 154.604 244.555,153.285 245.869,152.096 247.090 C 150.907 248.311,149.812 249.363,149.663 249.427 C 149.186 249.632,146.947 251.744,147.201 251.749 C 147.335 251.751,147.298 251.861,147.119 251.992 C 146.940 252.123,146.385 252.778,145.886 253.447 C 145.387 254.116,144.807 254.663,144.596 254.663 C 144.385 254.663,143.626 255.236,142.909 255.936 C 142.192 256.636,141.022 257.770,140.308 258.456 C 139.594 259.142,138.410 260.357,137.676 261.157 C 136.942 261.957,135.978 262.903,135.533 263.260 C 133.944 264.535,131.558 266.768,132.036 266.533 C 132.432 266.338,132.429 266.374,132.016 266.724 C 131.737 266.960,131.413 267.409,131.296 267.721 C 131.179 268.033,130.920 268.289,130.721 268.289 C 130.140 268.289,124.133 273.997,122.617 275.991 C 122.177 276.569,121.672 277.043,121.495 277.045 C 121.142 277.048,119.400 278.701,115.374 282.854 C 113.922 284.352,112.587 285.697,112.409 285.843 C 109.982 287.826,108.434 289.339,108.070 290.084 C 107.824 290.587,107.483 290.998,107.310 290.998 C 107.138 290.998,106.244 291.722,105.323 292.606 C 103.050 294.791,101.428 296.177,101.135 296.183 C 101.002 296.186,100.888 296.371,100.883 296.594 C 100.873 297.014,97.761 300.485,97.532 300.331 C 97.305 300.178,94.141 303.278,94.330 303.468 C 94.430 303.568,94.274 303.650,93.983 303.650 C 93.381 303.650,92.685 304.730,93.037 305.119 C 93.164 305.260,93.105 305.282,92.904 305.168 C 92.563 304.973,88.564 308.978,88.564 309.515 C 88.564 309.649,88.450 309.808,88.310 309.868 C 87.924 310.032,86.618 312.383,86.618 312.914 C 86.618 313.171,86.481 313.382,86.314 313.382 C 85.619 313.382,85.891 328.470,86.609 329.750 C 86.971 330.393,87.267 331.105,87.267 331.332 C 87.267 331.558,87.449 331.926,87.672 332.149 C 87.895 332.372,88.090 332.657,88.106 332.782 C 88.171 333.311,88.734 334.350,89.267 334.923 C 89.582 335.263,89.763 335.664,89.670 335.816 C 89.576 335.967,89.654 336.091,89.843 336.091 C 90.032 336.091,90.187 336.314,90.187 336.588 C 90.187 336.861,90.442 337.180,90.754 337.297 C 91.449 337.558,92.133 338.424,91.918 338.772 C 91.831 338.912,91.881 338.989,92.028 338.942 C 92.175 338.896,92.820 339.402,93.461 340.067 C 94.102 340.732,94.722 341.180,94.839 341.062 C 94.957 340.945,95.053 341.117,95.053 341.444 C 95.053 341.771,95.140 341.951,95.247 341.844 C 95.354 341.737,95.860 342.078,96.372 342.601 C 96.883 343.124,97.440 343.552,97.610 343.552 C 97.780 343.552,97.967 343.662,98.026 343.796 C 98.331 344.481,102.758 346.891,103.731 346.900 C 103.954 346.903,104.136 347.043,104.136 347.213 C 104.136 347.382,104.428 347.445,104.785 347.351 C 105.142 347.258,105.434 347.323,105.434 347.495 C 105.434 347.667,105.580 347.718,105.758 347.607 C 105.937 347.497,106.083 347.635,106.083 347.913 C 106.083 348.660,122.008 348.679,122.628 347.932 C 122.850 347.664,123.222 347.445,123.455 347.445 C 123.688 347.445,124.072 347.263,124.308 347.040 C 124.544 346.817,125.028 346.585,125.385 346.525 C 125.919 346.436,127.648 345.292,129.278 343.949 C 129.457 343.802,129.867 343.581,130.191 343.457 C 130.514 343.334,130.702 343.108,130.608 342.955 C 130.407 342.630,131.583 341.281,132.067 341.281 C 132.249 341.281,132.308 341.135,132.198 340.957 C 132.088 340.779,132.188 340.633,132.422 340.635 C 132.656 340.636,133.504 339.990,134.307 339.199 C 135.109 338.408,136.426 337.130,137.231 336.358 C 138.037 335.587,139.232 334.327,139.887 333.558 C 140.542 332.790,141.196 332.145,141.342 332.125 C 141.487 332.106,142.296 331.403,143.140 330.563 C 143.984 329.724,145.042 328.796,145.492 328.501 C 145.942 328.207,146.310 327.823,146.310 327.648 C 146.310 327.474,147.289 326.419,148.486 325.304 C 149.683 324.189,151.286 322.678,152.049 321.946 C 152.811 321.214,153.534 320.704,153.655 320.811 C 153.776 320.918,153.779 320.838,153.662 320.633 C 153.545 320.428,153.835 319.917,154.307 319.498 C 154.778 319.078,156.347 317.590,157.793 316.190 C 159.239 314.790,160.422 313.686,160.422 313.737 C 160.422 313.788,160.712 313.667,161.068 313.468 C 161.423 313.269,161.628 313.021,161.524 312.916 C 161.307 312.699,164.421 309.489,164.848 309.489 C 165.001 309.489,165.126 309.261,165.126 308.983 C 165.126 308.705,165.256 308.558,165.414 308.656 C 165.573 308.754,166.266 308.207,166.955 307.440 C 167.644 306.674,168.463 305.950,168.775 305.831 C 169.088 305.713,169.343 305.320,169.343 304.957 C 169.343 304.595,169.508 304.298,169.711 304.298 C 169.913 304.298,170.314 304.040,170.603 303.725 C 170.891 303.409,172.368 302.059,173.885 300.724 C 176.753 298.200,177.141 297.798,177.004 297.501 C 176.958 297.404,177.479 296.787,178.160 296.131 C 178.842 295.475,179.400 295.035,179.400 295.153 C 179.400 295.271,180.239 294.547,181.265 293.544 C 182.291 292.542,183.496 291.370,183.942 290.940 C 184.388 290.510,185.415 289.435,186.225 288.550 C 187.035 287.666,188.148 286.577,188.698 286.131 C 190.977 284.281,192.376 282.859,192.376 282.391 C 192.376 282.117,192.679 281.781,193.049 281.644 C 193.419 281.507,193.711 281.257,193.698 281.087 C 193.685 280.917,193.826 280.779,194.012 280.779 C 194.197 280.779,194.891 280.235,195.553 279.571 C 196.214 278.907,197.559 277.588,198.540 276.640 C 199.521 275.692,200.762 274.374,201.296 273.711 C 201.830 273.048,202.425 272.506,202.618 272.506 C 202.812 272.506,203.845 271.594,204.914 270.479 C 207.944 267.320,214.779 260.866,215.026 260.931 C 215.148 260.963,215.294 260.661,215.351 260.260 C 215.408 259.858,215.589 259.530,215.754 259.530 C 215.918 259.530,217.184 258.435,218.566 257.097 C 219.948 255.758,221.154 254.659,221.245 254.653 C 221.566 254.632,222.871 253.421,222.863 253.152 C 222.852 252.796,229.987 245.992,230.174 246.179 C 230.253 246.257,230.419 246.055,230.544 245.730 C 230.810 245.038,235.372 240.389,235.785 240.389 C 235.939 240.389,236.590 239.805,237.230 239.092 C 237.871 238.378,238.352 237.794,238.300 237.794 C 238.247 237.794,238.720 237.247,239.351 236.577 C 239.982 235.908,240.602 235.361,240.729 235.361 C 241.120 235.361,244.224 232.329,244.031 232.136 C 243.931 232.036,244.057 231.954,244.309 231.953 C 244.562 231.952,245.499 231.123,246.391 230.111 C 247.283 229.098,248.451 227.898,248.986 227.442 C 249.521 226.987,250.813 225.762,251.857 224.721 C 252.901 223.680,253.645 223.007,253.510 223.224 C 253.354 223.477,253.401 223.537,253.640 223.389 C 253.846 223.261,254.015 222.942,254.015 222.680 C 254.015 222.417,254.233 222.118,254.499 222.016 C 254.766 221.914,254.903 221.699,254.805 221.539 C 254.706 221.380,254.797 221.249,255.007 221.249 C 255.594 221.249,261.706 215.414,263.063 213.557 C 263.482 212.984,263.932 212.546,264.063 212.584 C 264.412 212.683,267.640 209.610,267.640 209.179 C 267.640 208.978,267.730 208.903,267.840 209.013 C 268.065 209.238,270.725 206.426,271.646 204.990 C 271.976 204.476,272.388 204.055,272.562 204.055 C 272.736 204.055,272.827 203.800,272.764 203.487 C 272.701 203.175,272.913 202.633,273.235 202.282 C 273.556 201.932,273.751 201.467,273.668 201.249 C 273.584 201.031,273.652 200.807,273.817 200.751 C 273.983 200.695,274.207 199.919,274.313 199.027 C 274.420 198.135,274.592 197.186,274.695 196.918 C 275.018 196.077,275.097 189.768,274.791 189.194 C 274.264 188.202,274.031 187.364,273.967 186.229 C 273.932 185.614,273.743 185.057,273.548 184.992 C 273.352 184.926,273.272 184.663,273.370 184.407 C 273.468 184.151,273.379 183.942,273.170 183.942 C 272.962 183.942,272.886 183.789,273.001 183.603 C 273.117 183.417,273.016 183.030,272.778 182.743 C 272.540 182.456,272.191 181.769,272.004 181.216 C 271.817 180.663,271.488 180.247,271.274 180.292 C 270.921 180.365,270.744 179.963,270.846 179.319 C 270.867 179.185,270.738 179.075,270.560 179.075 C 270.381 179.075,270.272 178.952,270.316 178.801 C 270.425 178.435,267.350 174.524,267.029 174.620 C 266.890 174.662,266.007 173.856,265.067 172.830 C 264.127 171.805,263.096 170.965,262.776 170.965 C 262.456 170.965,262.110 170.746,262.008 170.479 C 261.905 170.211,261.516 169.992,261.143 169.992 C 260.770 169.992,260.545 169.861,260.644 169.701 C 260.816 169.424,260.051 168.924,259.367 168.866 C 259.189 168.852,258.897 168.750,258.719 168.640 C 257.046 167.614,255.810 167.072,255.140 167.072 C 254.700 167.072,254.339 166.909,254.339 166.710 C 254.339 166.507,254.053 166.422,253.690 166.517 C 253.333 166.611,253.041 166.571,253.041 166.430 C 253.041 166.288,252.567 166.071,251.987 165.947 C 249.613 165.440,243.879 164.980,243.591 165.273 " stroke="none" fill="#7c3cec" fill-rule="evenodd"></path><path id="path1" d="" stroke="none" fill="#803cec" fill-rule="evenodd"></path></g></svg>